<svg id="visual" viewBox="0 0 900 300" width="900" height="300" xmlns="http://www.w3.org/2000/svg" xmlns:xlink="http://www.w3.org/1999/xlink" version="1.1"><rect x="0" y="0" width="900" height="300" fill="#002233"></rect><path d="M0 98L7.2 92C14.3 86 28.7 74 43 67.7C57.3 61.3 71.7 60.7 86 71.3C100.3 82 114.7 104 128.8 103.7C143 103.3 157 80.7 171.2 77.3C185.3 74 199.7 90 214 91.5C228.3 93 242.7 80 257 67.2C271.3 54.3 285.7 41.7 300 36.3C314.3 31 328.7 33 343 43.8C357.3 54.7 371.7 74.3 386 81.2C400.3 88 414.7 82 428.8 86.3C443 90.7 457 105.3 471.2 101.7C485.3 98 499.7 76 514 73C528.3 70 542.7 86 557 96.7C571.3 107.3 585.7 112.7 600 115C614.3 117.3 628.7 116.7 643 108.5C657.3 100.3 671.7 84.7 686 73C700.3 61.3 714.7 53.7 728.8 59.8C743 66 757 86 771.2 95.7C785.3 105.3 799.7 104.7 814 108C828.3 111.3 842.7 118.7 857 115.7C871.3 112.7 885.7 99.3 892.8 92.7L900 86" fill="none" stroke-linecap="round" stroke-linejoin="miter" stroke="#BF00FF" stroke-width="5"></path></svg>