<svg id="visual" viewBox="0 0 900 300" width="900" height="300" xmlns="http://www.w3.org/2000/svg" xmlns:xlink="http://www.w3.org/1999/xlink" version="1.1"><rect x="0" y="0" width="900" height="300" fill="#002233"></rect><path d="M0 109L7.2 97.7C14.3 86.3 28.7 63.7 43 51.5C57.3 39.3 71.7 37.7 86 41.8C100.3 46 114.7 56 128.8 61.8C143 67.7 157 69.3 171.2 78C185.3 86.7 199.7 102.3 214 97.2C228.3 92 242.7 66 257 67.5C271.3 69 285.7 98 300 110.3C314.3 122.7 328.7 118.3 343 115.2C357.3 112 371.7 110 386 97.7C400.3 85.3 414.7 62.7 428.8 52C443 41.3 457 42.7 471.2 51C485.3 59.3 499.7 74.7 514 81.7C528.3 88.7 542.7 87.3 557 82.7C571.3 78 585.7 70 600 59.2C614.3 48.3 628.7 34.7 643 36.2C657.3 37.7 671.7 54.3 686 69.5C700.3 84.7 714.7 98.3 728.8 102.2C743 106 757 100 771.2 88.2C785.3 76.3 799.7 58.7 814 49.8C828.3 41 842.7 41 857 42.3C871.3 43.7 885.7 46.3 892.8 47.7L900 49" fill="none" stroke-linecap="round" stroke-linejoin="miter" stroke="#007BFF" stroke-width="5"></path></svg>