<svg id="visual" viewBox="0 0 900 300" width="900" height="300" xmlns="http://www.w3.org/2000/svg" xmlns:xlink="http://www.w3.org/1999/xlink" version="1.1"><rect x="0" y="0" width="900" height="300" fill="#002233"></rect><path d="M0 38L7.2 47.8C14.3 57.7 28.7 77.3 43 75.3C57.3 73.3 71.7 49.7 86 51.2C100.3 52.7 114.7 79.3 128.8 83.2C143 87 157 68 171.2 58.7C185.3 49.3 199.7 49.7 214 44C228.3 38.3 242.7 26.7 257 36.8C271.3 47 285.7 79 300 86.7C314.3 94.3 328.7 77.7 343 64C357.3 50.3 371.7 39.7 386 42.2C400.3 44.7 414.7 60.3 428.8 77.8C443 95.3 457 114.7 471.2 116.3C485.3 118 499.7 102 514 100.3C528.3 98.7 542.7 111.3 557 100.8C571.3 90.3 585.7 56.7 600 44.2C614.3 31.7 628.7 40.3 643 49.8C657.3 59.3 671.7 69.7 686 67.2C700.3 64.7 714.7 49.3 728.8 43.7C743 38 757 42 771.2 49.5C785.3 57 799.7 68 814 71.3C828.3 74.7 842.7 70.3 857 71.7C871.3 73 885.7 80 892.8 83.5L900 87" fill="none" stroke-linecap="round" stroke-linejoin="miter" stroke="#88FF00" stroke-width="5"></path></svg>